# xmcd
#
# Track frame offsets:
#  150
#  14285
#  27681
#  42277
#  55741
#  68401
#  82236
#  97016
#  110354
#  126006
#  140635
#  154729
#  166800
#  178986
#  193007
#  207312
#  222661
#  233853
#  246393
#  260163
#  273629
#  287947
#  301376
#  314533
#  327474
#
# Disc length: 4567 seconds
#
# Revision: 0
# Processed by: cddbd v1.5.2PL0 Copyright (c) Steve Scherf et al.
# Submitted via: AltoMP3_Maker 3.0
#
DISCID=8d11d519
DTITLE=Various Artist - Head Rag Hop - Piano Blues 1925-1929 CD B
DYEAR=1900
DGENRE=
TTITLE0=Blind Leroy Garnett - Louisiana Glide
TTITLE1=Henry Brown - Henry Brown Blues
TTITLE2=Speckled Red - The Dirty Dozen
TTITLE3=Romeo Nelson - Head Rag Hop
TTITLE4=Eddie Miller - Freight Train Blues
TTITLE5=James Wiggins - Gotta Shave 'Em Dry
TTITLE6=Charles Avery - Dearborn St. Breakdown
TTITLE7=Romeo Nelson - Gettin' Dirty Just Shakin' That Thing
TTITLE8=Henry Brown - Eastern Chimes Blues
TTITLE9=Wesley Wallace - No. 29
TTITLE10=Whistlin' Alex Moore - They May Not Be My Toes
TTITLE11=James 'Stump' Johnson - The Duck's Yas-Yas-Yas
TTITLE12=Bob Call - 31 Blues
TTITLE13=Jim Clarke - Fat Fanny Stomp
TTITLE14=Charley Taylor - Louisiana Bound
TTITLE15=Lonnie Johnson - She Don't Know Who She Wants
TTITLE16=Speckled Red - The Right String but the Wrong Yo-Yo
TTITLE17=Mozelle Alderson - Tight Whoopee
TTITLE18=Louise johnson - All Night Long Blues alt. take
TTITLE19=Roosevelt Sykes - 3, 6 and 9
TTITLE20=Peetie Wheatstraw - Don't Feel Welcome Blues
TTITLE21=Little Brother Montomery - Vicksburg Blues
TTITLE22=Piano Kid Edwards - Gamblin' Man's Prayer
TTITLE23=Bat the Humming Bird - Humming Blues
TTITLE24='Jabo' Williams - Jab Blues
EXTD=
EXTT0=
EXTT1=
EXTT2=
EXTT3=
EXTT4=
EXTT5=
EXTT6=
EXTT7=
EXTT8=
EXTT9=
EXTT10=
EXTT11=
EXTT12=
EXTT13=
EXTT14=
EXTT15=
EXTT16=
EXTT17=
EXTT18=
EXTT19=
EXTT20=
EXTT21=
EXTT22=
EXTT23=
EXTT24=
PLAYORDER=
